<?xml version="1.0" encoding="UTF-8" standalone="no"?>
<!-- Generator: Adobe Illustrator 14.0.0, SVG Export Plug-In . SVG Version: 6.00 Build 43363)  -->

<svg
   xmlns:dc="http://purl.org/dc/elements/1.1/"
   xmlns:cc="http://creativecommons.org/ns#"
   xmlns:rdf="http://www.w3.org/1999/02/22-rdf-syntax-ns#"
   xmlns:svg="http://www.w3.org/2000/svg"
   xmlns="http://www.w3.org/2000/svg"
   xmlns:sodipodi="http://sodipodi.sourceforge.net/DTD/sodipodi-0.dtd"
   xmlns:inkscape="http://www.inkscape.org/namespaces/inkscape"
   version="1.1"
   id="Layer_1"
   x="0px"
   y="0px"
   width="288.00076"
   height="289.84201"
   viewBox="0 0 288.00077 289.842"
   enable-background="new 0 0 495.551 1413.368"
   xml:space="preserve"
   inkscape:version="0.91 r13725"
   sodipodi:docname="Baby_Moon_Star.svg"><metadata
     id="metadata25"><rdf:RDF><cc:Work
         rdf:about=""><dc:format>image/svg+xml</dc:format><dc:type
           rdf:resource="http://purl.org/dc/dcmitype/StillImage" /><dc:title></dc:title></cc:Work></rdf:RDF></metadata><defs
     id="defs23" /><sodipodi:namedview
     pagecolor="#ffffff"
     bordercolor="#666666"
     borderopacity="1"
     objecttolerance="10"
     gridtolerance="10"
     guidetolerance="10"
     inkscape:pageopacity="0"
     inkscape:pageshadow="2"
     inkscape:window-width="1680"
     inkscape:window-height="988"
     id="namedview21"
     showgrid="false"
     fit-margin-top="0"
     fit-margin-left="0"
     fit-margin-right="0"
     fit-margin-bottom="0"
     inkscape:zoom="0.16697703"
     inkscape:cx="148.02388"
     inkscape:cy="-345.45902"
     inkscape:window-x="-8"
     inkscape:window-y="-8"
     inkscape:window-maximized="1"
     inkscape:current-layer="Layer_1" /><g
     id="g3"
     transform="translate(-99.751621,-71.383)"><path
       d="m 382.532,219.781 c 0.028,-1.156 0.043,-2.315 0.043,-3.478 0,-1.163 -0.015,-2.322 -0.043,-3.478 3.625,-3.178 5.788,-8.24 5.09,-13.973 -0.689,-5.737 -3.985,-10.152 -8.261,-12.381 -0.498,-2.275 -1.052,-4.528 -1.661,-6.759 2.758,-3.957 3.63,-9.4 1.577,-14.809 -2.052,-5.409 -6.315,-8.903 -11.003,-10.034 -1.029,-2.083 -2.108,-4.136 -3.237,-6.157 1.724,-4.503 1.265,-9.993 -2.023,-14.743 -3.286,-4.754 -8.259,-7.123 -13.082,-7.098 -1.493,-1.771 -3.03,-3.504 -4.609,-5.199 0.603,-4.784 -1.151,-10.004 -5.475,-13.835 -4.32,-3.832 -9.713,-4.947 -14.39,-3.777 -1.871,-1.364 -3.778,-2.682 -5.719,-3.953 -0.555,-4.791 -3.505,-9.443 -8.624,-12.134 -5.116,-2.692 -10.622,-2.486 -14.883,-0.23 -2.144,-0.876 -4.313,-1.699 -6.509,-2.469 -1.692,-4.516 -5.679,-8.322 -11.296,-9.702 -5.618,-1.381 -10.913,0.147 -14.505,3.365 -2.285,-0.332 -4.587,-0.609 -6.907,-0.829 -2.726,-3.977 -7.5,-6.723 -13.264,-6.725 -5.765,0.002 -10.538,2.748 -13.264,6.725 -2.319,0.22 -4.623,0.497 -6.907,0.829 -3.593,-3.218 -8.887,-4.746 -14.505,-3.365 -5.618,1.38 -9.604,5.187 -11.296,9.702 -2.195,0.77 -4.365,1.593 -6.508,2.469 -4.262,-2.256 -9.768,-2.462 -14.884,0.23 -5.118,2.69 -8.069,7.343 -8.625,12.134 -1.94,1.271 -3.847,2.589 -5.718,3.953 -4.677,-1.17 -10.07,-0.055 -14.39,3.777 -4.323,3.831 -6.077,9.051 -5.475,13.835 -1.579,1.693 -3.116,3.428 -4.61,5.199 -4.821,-0.025 -9.794,2.343 -13.08,7.098 -3.288,4.75 -3.747,10.239 -2.023,14.743 -1.129,2.021 -2.208,4.075 -3.237,6.157 -4.688,1.131 -8.95,4.625 -11.002,10.034 -2.053,5.409 -1.182,10.852 1.576,14.809 -0.608,2.231 -1.163,4.484 -1.66,6.759 -4.276,2.229 -7.571,6.645 -8.261,12.381 -0.698,5.733 1.465,10.795 5.09,13.973 -0.029,1.156 -0.043,2.315 -0.043,3.478 0,1.163 0.015,2.322 0.043,3.478 -3.625,3.177 -5.788,8.24 -5.09,13.974 0.689,5.736 3.985,10.152 8.261,12.381 0.498,2.274 1.052,4.527 1.66,6.759 -2.758,3.957 -3.629,9.399 -1.577,14.809 2.052,5.409 6.314,8.903 11.002,10.034 1.029,2.083 2.108,4.136 3.237,6.158 -1.724,4.503 -1.264,9.992 2.023,14.743 3.287,4.754 8.259,7.122 13.081,7.097 1.494,1.772 3.031,3.505 4.61,5.2 -0.603,4.784 1.151,10.004 5.475,13.834 4.32,3.833 9.713,4.948 14.39,3.778 1.871,1.364 3.778,2.682 5.718,3.953 0.556,4.791 3.507,9.443 8.625,12.134 5.116,2.692 10.622,2.485 14.884,0.23 2.143,0.876 4.313,1.699 6.508,2.469 1.693,4.516 5.678,8.322 11.296,9.702 5.618,1.38 10.912,-0.148 14.505,-3.366 2.285,0.333 4.587,0.609 6.907,0.83 2.726,3.976 7.5,6.723 13.264,6.725 5.765,-0.002 10.539,-2.749 13.265,-6.725 2.319,-0.22 4.622,-0.497 6.907,-0.83 3.592,3.218 8.887,4.746 14.505,3.366 5.618,-1.379 9.604,-5.186 11.296,-9.702 2.195,-0.771 4.365,-1.593 6.508,-2.469 4.262,2.256 9.769,2.462 14.884,-0.23 5.119,-2.691 8.069,-7.344 8.624,-12.134 1.941,-1.271 3.848,-2.589 5.719,-3.953 4.677,1.17 10.07,0.055 14.39,-3.778 4.323,-3.831 6.077,-9.05 5.475,-13.834 1.579,-1.694 3.116,-3.428 4.609,-5.2 4.822,0.025 9.795,-2.343 13.082,-7.097 3.288,-4.75 3.747,-10.24 2.022,-14.743 1.129,-2.021 2.208,-4.075 3.237,-6.158 4.688,-1.131 8.951,-4.625 11.003,-10.034 2.053,-5.409 1.181,-10.852 -1.577,-14.809 0.608,-2.231 1.163,-4.484 1.661,-6.759 4.276,-2.229 7.572,-6.645 8.261,-12.381 0.698,-5.734 -1.465,-10.797 -5.09,-13.974 z"
       id="path5"
       inkscape:connector-curvature="0"
       style="fill:#7bc2b0" /><path
       d="m 335.154,124.9 c -24.415,-24.414 -56.875,-37.86 -91.402,-37.86 -34.527,0 -66.987,13.446 -91.402,37.86 -24.415,24.415 -37.86,56.875 -37.86,91.402 0,34.527 13.445,66.988 37.86,91.402 24.415,24.415 56.875,37.86 91.402,37.86 34.527,0 66.988,-13.446 91.402,-37.86 24.414,-24.414 37.86,-56.875 37.86,-91.402 0,-34.527 -13.446,-66.987 -37.86,-91.402 z m 12.073,67.895 0,0 0,0 0,0 z m -0.871,-0.511 -21.034,25.82 c -0.208,0.255 -0.277,0.597 -0.185,0.913 l 9.263,31.676 0.49,-0.105 0.01,0.033 0,0 -0.48,0.139 c 1.093,3.797 -0.298,5.593 -0.948,6.189 -0.442,0.415 -1.227,0.932 -2.491,1.077 -0.218,0.025 -0.445,0.038 -0.675,0.038 -0.873,0 -1.829,-0.181 -2.843,-0.538 -0.05,-0.017 -0.092,-0.032 -0.133,-0.048 l -30.995,-12 c -0.117,-0.045 -0.239,-0.067 -0.361,-0.067 -0.198,0 -0.395,0.059 -0.563,0.174 l -27.28,18.604 c -0.089,0.06 -0.162,0.11 -0.226,0.151 -1.179,0.766 -2.316,1.215 -3.387,1.339 -0.205,0.023 -0.409,0.035 -0.606,0.035 -0.762,0 -1.452,-0.172 -2.052,-0.512 -0.77,-0.44 -2.546,-1.896 -2.339,-5.851 0,-0.004 0,-0.008 0,-0.012 10e-4,-0.008 10e-4,-0.017 0.002,-0.025 l 1.821,-32.953 c 0.018,-0.329 -0.126,-0.645 -0.387,-0.847 l -26.11,-20.178 c -0.005,-0.004 -0.05,-0.039 -0.055,-0.042 l -0.042,-0.034 c -3.083,-2.436 -2.998,-4.711 -2.818,-5.577 0.172,-0.842 0.961,-2.91 4.555,-3.963 0.114,-0.035 0.219,-0.063 0.32,-0.09 l 31.905,-8.448 c 0.318,-0.084 0.575,-0.32 0.686,-0.63 l 11.125,-31.066 c 1.347,-3.774 3.57,-4.422 4.464,-4.524 0.107,-0.013 0.238,-0.021 0.388,-0.021 1,0 2.956,0.41 4.817,3.159 0.057,0.083 0.111,0.164 0.163,0.246 l 17.899,27.734 c 0.179,0.277 0.482,0.448 0.811,0.458 l 32.979,0.978 c 0.114,0.003 0.223,0.008 0.331,0.015 3.769,0.21 4.997,2.05 5.351,2.831 0.354,0.774 0.934,2.886 -1.285,5.82 l -0.051,0.066 0.424,0.383 -0.069,-0.028 -0.389,-0.319 z m -77.23,-61.09 c -0.078,0.018 -0.152,0.033 -0.228,0.047 -0.087,0.017 -0.166,0.028 -0.249,0.04 -2.196,0.303 -4.395,0.703 -6.57,1.193 -32.764,7.385 -57.266,34.755 -60.97,68.107 -0.005,0.046 -0.007,0.093 -0.006,0.14 0.002,0.087 0.001,0.175 -0.004,0.263 -0.324,5.616 1.869,6.358 5.851,7.704 2.388,0.807 5.093,1.722 7.137,3.954 2.793,3.056 3.964,6.786 3.211,10.23 -0.523,2.398 -1.94,4.525 -4.209,6.324 -0.398,0.315 -0.496,0.878 -0.229,1.31 0.423,0.683 0.681,1.515 0.766,2.473 0.292,3.265 -1.351,6.626 -4.286,8.771 -0.805,0.587 -1.131,1.561 -0.831,2.479 0.379,1.161 1.586,1.911 3.075,1.911 0.704,0 1.455,-0.163 2.231,-0.482 0.464,-0.191 0.958,-0.289 1.465,-0.289 1.505,0 3.133,0.85 4.354,2.275 1.665,1.942 2.195,4.904 1.29,7.204 -1.28,3.25 -0.521,6.482 2.255,9.607 0.011,0.013 0.023,0.025 0.035,0.038 14.971,15.206 34.851,23.581 55.979,23.581 5.854,0 11.747,-0.659 17.515,-1.959 1.797,-0.405 3.611,-0.881 5.392,-1.417 l 0.141,-0.041 c 0.135,-0.038 0.222,-0.06 0.309,-0.08 0.426,-0.096 0.859,-0.144 1.291,-0.144 2.248,0 4.296,1.261 5.344,3.291 1.246,2.409 0.691,5.28 -1.38,7.144 l -0.066,0.057 c -0.095,0.081 -0.189,0.158 -0.259,0.213 -12.05,9.781 -25.881,16.478 -41.119,19.912 -7.261,1.637 -14.687,2.467 -22.069,2.467 -46.469,0 -87.615,-32.914 -97.836,-78.262 -5.882,-26.093 -1.228,-52.95 13.104,-75.623 14.333,-22.672 36.597,-38.398 62.691,-44.279 7.34,-1.654 14.796,-2.493 22.162,-2.493 8.003,0 16.058,0.989 23.94,2.941 0.116,0.027 0.211,0.052 0.307,0.08 2.965,0.852 4.833,3.212 4.756,6.012 -0.067,2.568 -1.832,4.748 -4.29,5.301 z m -34.912,74.916 0,0 0,0 0,0 z m 73.349,82.956 c -0.596,-1.554 -2.084,-2.599 -3.704,-2.599 -0.344,0 -0.69,0.047 -1.029,0.139 l -0.081,0.023 -0.071,0.021 c -1.829,0.548 -3.684,1.036 -5.519,1.45 -5.873,1.324 -11.875,1.995 -17.838,1.995 -21.486,0 -42.489,-8.836 -57.621,-24.243 -4.185,-4.66 -3.763,-8.965 -2.666,-11.75 0.558,-1.417 0.299,-3.36 -0.63,-4.725 -0.79,-1.16 -1.959,-1.799 -3.293,-1.799 -0.654,0 -1.341,0.154 -2.042,0.459 -2.248,0.975 -4.709,1.489 -7.118,1.489 -6.147,0 -11.177,-3.203 -12.285,-7.804 0.003,-0.069 0.01,-0.125 0.016,-0.17 0.025,0.005 0.045,0.01 0.058,0.013 2.314,0.517 4.462,0.779 6.389,0.779 8.946,0 11.43,-5.585 11.494,-8.538 0.039,-1.807 -0.711,-3.054 -1.867,-3.104 -0.913,-0.041 -1.592,-0.498 -1.852,-0.793 4.244,-1.875 6.736,-4.388 7.409,-7.471 0.61,-2.791 -0.384,-5.861 -2.726,-8.423 -1.688,-1.845 -4.025,-2.634 -6.285,-3.398 -4.103,-1.387 -7.646,-2.584 -7.232,-9.749 0.004,-0.077 0,-0.153 -0.013,-0.226 3.696,-34.368 28.812,-62.543 62.576,-70.153 2.236,-0.504 4.492,-0.914 6.705,-1.219 0.081,-0.011 0.134,-0.02 0.183,-0.029 1.598,-0.285 2.773,-1.642 2.861,-3.307 0.076,-1.438 -0.743,-3.375 -3.301,-4.1 -0.052,-0.017 -0.13,-0.037 -0.212,-0.054 -7.646,-1.898 -15.557,-2.866 -23.471,-2.866 -7.254,0 -14.553,0.816 -21.695,2.426 -52.86,11.915 -86.172,64.611 -74.258,117.469 4.934,21.887 17.327,41.586 34.899,55.468 17.317,13.681 38.936,21.216 60.875,21.216 7.256,0 14.557,-0.816 21.7,-2.427 14.931,-3.365 28.481,-9.926 40.275,-19.501 0.069,-0.053 0.152,-0.122 0.231,-0.188 1.307,-1.177 1.724,-2.781 1.138,-4.311 z M 192.88,213.967 c -0.067,1.565 -1.344,2.79 -2.907,2.79 -0.044,0 -0.088,-0.001 -0.132,-0.003 -1.607,-0.071 -2.857,-1.437 -2.786,-3.042 0.069,-1.564 1.348,-2.789 2.912,-2.789 0.042,0 0.085,0 0.128,0.002 0.777,0.035 1.496,0.37 2.022,0.945 0.526,0.575 0.798,1.319 0.763,2.097 z m 152.151,-22.855 c -0.009,0.011 -0.019,0.023 -0.028,0.035 -0.005,0.007 -0.011,0.014 -0.017,0.021 l -21.952,26.948 9.671,33.073 c 0.003,0.013 0.007,0.025 0.01,0.038 0.829,2.859 -0.046,4.059 -0.458,4.438 -0.252,0.236 -0.843,0.631 -1.954,0.631 -0.677,0 -1.446,-0.151 -2.269,-0.444 -0.023,-0.007 -0.047,-0.016 -0.07,-0.024 l -32.346,-12.524 -28.46,19.409 c -0.075,0.052 -0.149,0.103 -0.218,0.147 -1.109,0.72 -2.125,1.085 -3.021,1.085 -0.572,0 -0.954,-0.149 -1.174,-0.275 -0.49,-0.28 -1.612,-1.25 -1.457,-4.226 0,-0.008 0,-0.017 10e-4,-0.025 0,-0.002 0,-0.005 0,-0.008 l 1.902,-34.405 -27.265,-21.071 -0.087,-0.068 c -2.308,-1.824 -2.289,-3.288 -2.176,-3.821 0.106,-0.533 0.647,-1.856 3.324,-2.63 0.075,-0.024 0.154,-0.046 0.276,-0.079 l 33.309,-8.819 11.616,-32.439 c 1.013,-2.837 2.435,-3.297 3,-3.363 0.059,-0.007 0.127,-0.012 0.205,-0.012 0.643,0 1.934,0.313 3.345,2.397 0.045,0.065 0.09,0.135 0.137,0.207 l 18.683,28.952 34.432,1.02 c 0.101,0.002 0.201,0.006 0.264,0.012 2.819,0.147 3.645,1.314 3.868,1.808 0.217,0.482 0.55,1.84 -1.091,4.012 z"
       id="path7"
       inkscape:connector-curvature="0"
       style="fill:#6fbeaa" /><path
       d="m 243.752,88.041 c -70.837,0 -128.262,57.425 -128.262,128.262 0,70.837 57.425,128.263 128.262,128.263 70.837,0 128.262,-57.425 128.262,-128.263 0,-70.837 -57.425,-128.262 -128.262,-128.262 z m 64.725,207.571 c -0.03,0.027 -0.061,0.054 -0.091,0.08 -0.1,0.085 -0.204,0.169 -0.28,0.23 -12.162,9.872 -26.131,16.636 -41.521,20.105 -54.492,12.283 -108.818,-22.058 -121.101,-76.551 -12.282,-54.49 22.059,-108.815 76.551,-121.097 15.54,-3.503 31.206,-3.35 46.562,0.453 0.116,0.026 0.227,0.056 0.34,0.088 3.421,0.983 5.572,3.728 5.482,7.001 -0.083,3.024 -2.169,5.594 -5.073,6.248 -0.087,0.02 -0.175,0.038 -0.265,0.054 -0.098,0.019 -0.196,0.034 -0.298,0.048 -0.01,0.001 -0.021,0.003 -0.032,0.004 -2.127,0.293 -4.298,0.688 -6.451,1.174 -32.407,7.304 -56.537,34.29 -60.196,67.242 0.003,0.116 10e-4,0.234 -0.005,0.351 -0.28,4.855 1.205,5.357 5.174,6.699 2.501,0.846 5.337,1.805 7.554,4.226 3.016,3.3 4.274,7.352 3.451,11.119 -0.437,2.001 -1.618,4.559 -4.565,6.895 0.476,0.768 0.807,1.736 0.912,2.911 0.3,3.354 -1.252,7.154 -4.692,9.667 -1.438,1.05 0.143,3.561 3.505,2.175 2.497,-1.029 5.237,0.251 6.959,2.26 1.895,2.211 2.496,5.591 1.461,8.221 -1.131,2.872 -0.434,5.756 2.072,8.577 19.023,19.322 46.142,27.303 72.562,21.347 1.773,-0.399 3.559,-0.868 5.324,-1.398 l 0.15,-0.043 c 0.022,-0.007 0.044,-0.013 0.066,-0.02 0.102,-0.027 0.204,-0.053 0.305,-0.075 3.083,-0.695 6.267,0.812 7.741,3.664 1.456,2.819 0.813,6.173 -1.601,8.345 z m 38.76,-102.831 c -0.021,0.028 -0.042,0.056 -0.064,0.084 -0.014,0.017 -0.027,0.034 -0.042,0.051 l -21.034,25.82 9.263,31.676 c 0.008,0.023 0.013,0.046 0.02,0.07 1.247,4.333 -0.463,6.497 -1.232,7.203 -0.546,0.512 -1.52,1.158 -3.054,1.334 -1.199,0.138 -2.533,-0.046 -3.964,-0.55 -0.056,-0.019 -0.112,-0.039 -0.167,-0.061 l -30.99,-11.998 -27.28,18.604 c -0.088,0.06 -0.175,0.119 -0.249,0.166 -1.305,0.848 -2.587,1.35 -3.813,1.491 -1.519,0.175 -2.608,-0.227 -3.266,-0.6 -0.935,-0.535 -3.082,-2.266 -2.845,-6.776 0.001,-0.005 0.001,-0.011 0.001,-0.016 0,-0.007 0,-0.013 10e-4,-0.021 l 1.821,-32.953 -26.11,-20.178 c -0.014,-0.01 -0.026,-0.021 -0.04,-0.03 l -0.073,-0.059 c -3.501,-2.766 -3.391,-5.49 -3.17,-6.558 0.214,-1.042 1.154,-3.519 5.253,-4.72 0.115,-0.035 0.233,-0.068 0.347,-0.098 l 31.903,-8.448 11.125,-31.066 c 1.536,-4.304 4.211,-5.057 5.291,-5.181 1.041,-0.12 3.724,-0.01 6.148,3.57 0.06,0.087 0.121,0.178 0.179,0.27 l 17.896,27.729 32.979,0.978 c 0.125,0.003 0.248,0.009 0.369,0.017 4.3,0.24 5.767,2.475 6.193,3.416 0.429,0.933 1.148,3.47 -1.396,6.834 z"
       id="path9"
       inkscape:connector-curvature="0"
       style="fill:#cae4d2" /><path
       d="m 333.742,126.311 c -24.04,-24.03 -56,-37.27 -89.99,-37.27 -33.99,0 -65.95,13.24 -89.99,37.27 -24.03,24.04 -37.27,56 -37.27,89.99 0,34 13.24,65.95 37.27,89.99 24.04,24.04 56,37.28 89.99,37.28 33.99,0 65.95,-13.24 89.99,-37.28 24.03,-24.04 37.27,-55.99 37.27,-89.99 0,-33.99 -13.24,-65.951 -37.27,-89.99 z M 309.143,296.36 c -0.03,0.03 -0.07,0.06 -0.11,0.1 -0.11,0.09 -0.22,0.18 -0.31,0.24 -12.27,9.97 -26.38,16.8 -41.92,20.3 -7.4,1.67 -14.98,2.52 -22.51,2.52 -47.39,0 -89.36,-33.57 -99.78,-79.82 -6,-26.62 -1.26,-54.01 13.36,-77.13 14.62,-23.13 37.33,-39.17 63.94,-45.17 7.49,-1.68 15.09,-2.54 22.6,-2.54 8.17,0 16.39,1.01 24.42,3 0.12,0.03 0.25,0.06 0.38,0.1 3.87,1.11 6.31,4.25 6.21,7.99 -0.1,3.48 -2.51,6.44 -5.86,7.2 -0.09,0.02 -0.2,0.04 -0.3,0.06 -0.11,0.02 -0.22,0.04 -0.35,0.05 -0.01,0 -0.06,0.01 -0.07,0.01 -2.06,0.29 -4.2,0.68 -6.32,1.15 -31.91,7.2 -55.78,33.84 -59.42,66.32 0,0.12 0,0.24 -0.01,0.36 -0.23,4.09 0.58,4.37 4.5,5.69 2.62,0.89 5.58,1.89 7.97,4.5 3.24,3.55 4.58,7.92 3.69,12.01 -0.4,1.83 -1.47,4.47 -4.28,6.93 0.35,0.77 0.56,1.63 0.65,2.57 0.35,3.96 -1.6,8.01 -5.1,10.57 -0.15,0.11 -0.13,0.19 -0.11,0.24 0.07,0.21 0.44,0.53 1.17,0.53 0.45,0 0.94,-0.11 1.47,-0.33 0.71,-0.29 1.46,-0.44 2.23,-0.44 2.08,0 4.28,1.11 5.87,2.97 2.13,2.48 2.8,6.28 1.64,9.24 -1,2.52 -0.38,4.98 1.87,7.53 14.59,14.81 33.95,22.96 54.53,22.96 5.71,0 11.46,-0.64 17.08,-1.91 1.75,-0.39 3.52,-0.86 5.25,-1.38 l 0.16,-0.04 c 0.01,0 0.08,-0.03 0.09,-0.03 0.12,-0.03 0.23,-0.06 0.35,-0.08 0.56,-0.13 1.14,-0.2 1.72,-0.2 3,0 5.73,1.68 7.12,4.38 1.669,3.231 0.939,7.06 -1.82,9.55 z m 38.809,-102.87 -0.82,-0.57 0.77,0.63 -20.7,25.41 9.12,31.17 c 0,0.01 0.01,0.06 0.02,0.07 1.4,4.87 -0.59,7.37 -1.52,8.22 -0.65,0.61 -1.81,1.38 -3.61,1.59 -0.3,0.04 -0.6,0.05 -0.91,0.05 -1.1,0 -2.28,-0.22 -3.5,-0.65 -0.06,-0.02 -0.13,-0.04 -0.2,-0.07 l -30.5,-11.81 -26.84,18.31 c -0.11,0.07 -0.2,0.13 -0.28,0.18 -1.43,0.93 -2.85,1.48 -4.23,1.64 -0.29,0.04 -0.57,0.05 -0.84,0.05 -1.1,0 -2.15,-0.26 -3.04,-0.77 -1.1,-0.63 -3.61,-2.63 -3.35,-7.7 0,-0.01 0,-0.01 0,-0.02 0,-0.01 0,-0.02 0,-0.02 l 1.8,-32.43 -25.7,-19.85 c 0,-0.01 -0.05,-0.04 -0.05,-0.05 l -0.08,-0.05 c -3.94,-3.12 -3.77,-6.31 -3.52,-7.54 0.25,-1.2 1.32,-4.12 5.95,-5.48 0.12,-0.04 0.25,-0.07 0.38,-0.11 l 31.39,-8.31 10.95,-30.57 c 1.72,-4.83 4.85,-5.69 6.11,-5.84 0.2,-0.02 0.41,-0.03 0.62,-0.03 1.4,0 4.1,0.52 6.48,4.04 0.06,0.09 0.13,0.19 0.19,0.29 l 17.61,27.28 32.45,0.96 c 0.14,0.01 0.27,0.01 0.41,0.02 4.83,0.27 6.53,2.89 7.03,4 0.5,1.1 1.36,4.06 -1.51,7.85 l -0.08,0.11 z"
       id="path11"
       inkscape:connector-curvature="0"
       style="fill:#d1e8d8" /><path
       d="m 345.209,187.512 c -0.138,-0.305 -0.803,-1.107 -3.01,-1.223 -0.074,-0.006 -0.152,-0.009 -0.23,-0.01 l -34.968,-1.036 -18.968,-29.394 c -0.041,-0.063 -0.081,-0.124 -0.121,-0.182 -1.245,-1.84 -2.275,-1.999 -2.61,-1.959 -0.347,0.041 -1.369,0.453 -2.173,2.706 l -11.794,32.935 -33.817,8.954 c -0.076,0.021 -0.151,0.04 -0.222,0.063 -2.123,0.614 -2.588,1.546 -2.654,1.875 -0.071,0.336 0,1.406 1.815,2.84 0.029,0.022 0.053,0.042 0.082,0.064 l 27.677,21.39 -1.931,34.93 c 0,0.006 -0.002,0.014 -0.001,0.022 -0.125,2.374 0.652,3.141 0.954,3.313 0.292,0.166 1.304,0.422 3.155,-0.78 0.062,-0.04 0.126,-0.084 0.192,-0.13 l 28.902,-19.71 32.836,12.714 c 0.008,0.002 0.016,0.005 0.024,0.007 2.059,0.735 2.983,0.259 3.227,0.032 0.256,-0.236 0.841,-1.161 0.175,-3.443 0,-0.007 -0.005,-0.014 -0.005,-0.021 l -9.817,-33.574 -0.001,-0.004 22.284,-27.355 c 0.006,-0.012 0.015,-0.02 0.022,-0.028 1.286,-1.698 1.115,-2.694 0.977,-2.996 z m -43.73,19.96 c 1.705,-0.196 3.245,1.025 3.441,2.731 0.196,1.706 -1.024,3.249 -2.73,3.445 -1.707,0.197 -3.25,-1.029 -3.447,-2.734 -0.194,-1.706 1.03,-3.247 2.736,-3.442 z m -20.443,2.353 c 1.705,-0.196 3.245,1.026 3.442,2.731 0.197,1.705 -1.025,3.25 -2.731,3.446 -1.705,0.196 -3.25,-1.03 -3.446,-2.735 -0.196,-1.705 1.03,-3.246 2.735,-3.442 z m 12.953,22.55 c -8.674,0.999 -14.383,-4.61 -14.937,-10.959 l 0.004,-0.001 c -0.045,-1.055 0.764,-1.73 1.696,-0.936 l 0.003,0 c 3.982,3.367 9.614,3.031 12.179,2.736 2.565,-0.295 8.127,-1.252 11.238,-5.433 0.725,-0.985 1.672,-0.512 1.868,0.525 l 0.003,0 c 0.906,6.31 -3.381,13.069 -12.054,14.068 z"
       id="path13"
       inkscape:connector-curvature="0"
       style="fill:#f9e0df" /><path
       d="m 344.292,187.9 c -0.08,-0.11 -0.67,-0.53 -2.14,-0.61 -0.09,-0.01 -0.15,-0.01 -0.2,-0.01 l -34.98,-1.04 c -0.33,-0.01 -0.63,-0.18 -0.81,-0.46 l -18.97,-29.39 c -0.03,-0.05 -0.07,-0.1 -0.1,-0.15 -0.82,-1.21 -1.48,-1.51 -1.68,-1.54 -0.19,0.07 -0.8,0.54 -1.34,2.05 l -11.8,32.94 c -0.11,0.31 -0.36,0.54 -0.68,0.63 l -33.82,8.95 c -0.08,0.02 -0.12,0.03 -0.17,0.05 -1.45,0.42 -1.92,0.97 -1.99,1.14 0,0.15 0.24,0.87 1.47,1.84 l 0.04,0.03 27.71,21.41 c 0.26,0.21 0.4,0.52 0.38,0.85 l -1.93,34.93 c 0,0.01 0,0.01 0,0.02 -0.08,1.55 0.28,2.22 0.45,2.39 0.03,0 0.09,0.01 0.19,0.01 0.28,0 0.91,-0.09 1.93,-0.76 0.05,-0.03 0.11,-0.07 0.16,-0.11 l 28.91,-19.72 c 0.17,-0.11 0.37,-0.17 0.57,-0.17 0.12,0 0.24,0.02 0.36,0.07 l 32.81,12.7 c 0.65,0.24 1.19,0.35 1.64,0.35 0.44,0 0.61,-0.12 0.61,-0.12 0.1,-0.12 0.33,-0.86 -0.12,-2.41 -0.01,-0.01 -0.01,-0.02 -0.01,-0.04 l -9.82,-33.55 c -0.09,-0.32 -0.02,-0.66 0.19,-0.92 l 22.28,-27.35 c 0,-0.01 0.01,-0.02 0.02,-0.03 0.84,-1.12 0.89,-1.81 0.84,-1.98 z m -45.68,20.1 c 0.69,-0.86 1.66,-1.4 2.75,-1.52 0.16,-0.02 0.32,-0.03 0.48,-0.03 2.08,0 3.83,1.56 4.07,3.64 0.26,2.25 -1.36,4.29 -3.61,4.55 -0.16,0.02 -0.32,0.03 -0.47,0.03 -2.09,0 -3.84,-1.57 -4.08,-3.64 -0.129,-1.09 0.18,-2.17 0.86,-3.03 z m -17.69,0.83 c 0.16,-0.02 0.32,-0.03 0.47,-0.03 2.09,0 3.84,1.57 4.08,3.64 0.13,1.09 -0.18,2.17 -0.86,3.03 -0.68,0.86 -1.66,1.4 -2.75,1.52 -0.16,0.02 -0.32,0.03 -0.47,0.03 -2.09,0 -3.85,-1.56 -4.08,-3.64 -0.26,-2.25 1.36,-4.29 3.61,-4.55 z m 23.54,19.03 c -2.35,3.05 -6.03,5.01 -10.36,5.51 -0.7,0.08 -1.41,0.12 -2.09,0.12 -8.48,0 -13.44,-6.03 -13.96,-11.99 0,-0.05 0,-0.1 0,-0.15 0,-0.66 0.21,-1.25 0.61,-1.66 0.34,-0.36 0.8,-0.56 1.29,-0.56 0.34,0 0.84,0.1 1.39,0.54 0.02,0.01 0.04,0.03 0.06,0.04 2.1,1.78 5,2.68 8.62,2.68 0.89,0 1.81,-0.06 2.8,-0.17 4.87,-0.56 8.51,-2.3 10.55,-5.04 0.45,-0.6 1.04,-0.94 1.68,-0.94 0.92,0 1.71,0.73 1.95,1.78 0.02,0.05 0.03,0.1 0.03,0.15 0.49,3.41 -0.449,6.94 -2.57,9.69 z"
       id="path15"
       inkscape:connector-curvature="0"
       style="fill:#fbe7e5" /><path
       d="m 303.092,287.571 c -0.046,0.014 -0.089,0.026 -0.132,0.039 -1.83,0.549 -3.69,1.04 -5.582,1.466 -28.671,6.462 -57.211,-2.994 -76.393,-22.523 -4.819,-5.363 -3.875,-10.298 -2.883,-12.817 0.876,-2.224 -0.825,-6.437 -4.636,-4.781 -8.972,3.89 -19.154,0.206 -20.805,-7.131 0.015,-1.453 0.807,-1.345 1.299,-1.233 17.598,3.933 17.878,-8.797 15.751,-8.889 -2.024,-0.09 -3.652,-1.77 -2.576,-2.55 9.797,-4.144 8.062,-10.797 4.712,-14.461 -4.421,-4.83 -14.473,-1.825 -13.777,-13.88 l -0.037,-0.003 c 3.535,-33.943 28.247,-63.375 63.379,-71.294 2.266,-0.511 4.53,-0.923 6.789,-1.234 0.044,-0.007 0.086,-0.011 0.129,-0.021 2.548,-0.439 3.109,-4.433 -0.523,-5.463 -0.046,-0.015 -0.092,-0.026 -0.14,-0.036 -14.225,-3.531 -29.472,-3.888 -44.747,-0.445 -52.407,11.813 -85.314,63.871 -73.502,116.274 11.813,52.407 63.87,85.314 116.278,73.501 15.112,-3.406 28.601,-10.157 39.865,-19.302 0.076,-0.059 0.147,-0.118 0.216,-0.176 2.484,-2.232 0.098,-5.799 -2.685,-5.041 z M 189.797,217.753 c -2.161,-0.096 -3.837,-1.925 -3.741,-4.086 0.095,-2.161 1.925,-3.834 4.083,-3.741 2.161,0.096 3.837,1.925 3.74,4.085 -0.092,2.162 -1.92,3.838 -4.082,3.742 z"
       id="path17"
       inkscape:connector-curvature="0"
       style="fill:#f5de87" /><path
       d="m 305.692,289.78 c -0.29,-0.77 -1.05,-1.31 -1.83,-1.31 -0.17,0 -0.34,0.02 -0.51,0.07 l -0.05,0.01 -0.06,0.02 c -1.86,0.56 -3.76,1.06 -5.64,1.48 -6.02,1.36 -12.17,2.05 -18.28,2.05 -22.02,0 -43.54,-9.06 -59.05,-24.85 -5.19,-5.77 -4.17,-11.17 -3.1,-13.88 0.32,-0.81 0.14,-2.04 -0.42,-2.87 -0.42,-0.61 -0.97,-0.92 -1.64,-0.92 -0.38,0 -0.8,0.1 -1.25,0.29 -2.5,1.08 -5.23,1.66 -7.91,1.66 -7.14,0 -13.01,-3.9 -14.27,-9.49 -0.01,-0.07 -0.02,-0.15 -0.02,-0.23 0.02,-2.11 1.43,-2.28 1.86,-2.28 0.26,0 0.49,0.05 0.66,0.09 2.16,0.48 4.16,0.72 5.95,0.72 6.06,0 8.22,-2.77 8.98,-4.43 0.69,-1.53 0.55,-2.83 0.35,-3.22 -1.67,-0.15 -3.22,-1.17 -3.59,-2.38 -0.23,-0.76 0.03,-1.5 0.68,-1.97 0.06,-0.04 0.12,-0.08 0.19,-0.11 3.79,-1.6 6.08,-3.75 6.62,-6.22 0.46,-2.11 -0.38,-4.6 -2.25,-6.65 -1.34,-1.46 -3.34,-2.13 -5.45,-2.85 -4.22,-1.42 -9,-3.04 -8.6,-11.51 -0.03,-0.09 -0.03,-0.2 -0.02,-0.3 3.68,-35.34 29.46,-64.34 64.15,-72.16 2.29,-0.52 4.6,-0.94 6.87,-1.25 l 0.22,0.98 -0.15,-0.99 c 0.83,-0.15 1.22,-0.83 1.25,-1.45 0.05,-0.96 -0.64,-1.73 -1.85,-2.07 -0.01,-0.01 -0.09,-0.03 -0.11,-0.03 -7.52,-1.87 -15.27,-2.82 -23.03,-2.82 -7.1,0 -14.25,0.8 -21.25,2.38 -51.79,11.67 -84.42,63.3 -72.75,115.08 4.84,21.44 16.98,40.74 34.19,54.34 16.97,13.4 38.14,20.78 59.63,20.78 7.11,0 14.27,-0.8 21.26,-2.38 14.63,-3.29 27.91,-9.72 39.46,-19.1 0.08,-0.06 0.14,-0.11 0.2,-0.16 0.87,-0.789 0.73,-1.64 0.56,-2.07 z m -115.94,-71.03 c -2.71,-0.12 -4.82,-2.42 -4.7,-5.13 0.12,-2.63 2.28,-4.7 4.91,-4.7 0.08,0 0.15,0 0.22,0.01 1.31,0.06 2.52,0.62 3.41,1.59 0.89,0.97 1.34,2.22 1.29,3.54 -0.12,2.63 -2.27,4.7 -4.91,4.7 -0.07,0 -0.15,0 -0.22,-0.01 z"
       id="path19"
       inkscape:connector-curvature="0"
       style="fill:#f6e091" /></g></svg>